<mxfile host="app.diagrams.net" agent="Mozilla/5.0 (Windows NT 10.0; Win64; x64) AppleWebKit/537.36 (KHTML, like Gecko) Chrome/129.0.0.0 Safari/537.36" version="24.7.14">
  <diagram name="Page-1" id="8ZSGW-p31r35VRgH1QOm">
    <mxGraphModel dx="1689" dy="386" grid="1" gridSize="10" guides="1" tooltips="1" connect="1" arrows="1" fold="1" page="1" pageScale="1" pageWidth="827" pageHeight="1169" math="0" shadow="0">
      <root>
        <mxCell id="0" />
        <mxCell id="1" parent="0" />
        <mxCell id="uTO-hYd0or9rgPyPV0Z1-38" value="" style="rounded=0;whiteSpace=wrap;html=1;strokeColor=none;" parent="1" vertex="1">
          <mxGeometry x="-480" y="100" width="1110" height="450" as="geometry" />
        </mxCell>
        <mxCell id="uTO-hYd0or9rgPyPV0Z1-13" value="AI Central System" style="swimlane;whiteSpace=wrap;html=1;fillColor=#dae8fc;strokeColor=#000000;strokeWidth=2;" parent="1" vertex="1">
          <mxGeometry x="-10" y="150" width="240" height="100" as="geometry">
            <mxRectangle x="270" y="280" width="140" height="30" as="alternateBounds" />
          </mxGeometry>
        </mxCell>
        <mxCell id="uTO-hYd0or9rgPyPV0Z1-19" value="&lt;font style=&quot;font-size: 13px;&quot;&gt;Optimize Resource Allocation&lt;br&gt;&lt;/font&gt;&lt;div style=&quot;font-size: 13px;&quot;&gt;&lt;span style=&quot;background-color: initial;&quot;&gt;&lt;font style=&quot;font-size: 13px;&quot;&gt;Predict Security Threats&lt;br&gt;Enhance Productivity and Integration&lt;br&gt;Centralized Database&lt;/font&gt;&lt;/span&gt;&lt;/div&gt;" style="text;html=1;align=left;verticalAlign=middle;whiteSpace=wrap;rounded=0;" parent="uTO-hYd0or9rgPyPV0Z1-13" vertex="1">
          <mxGeometry x="5" y="25" width="225" height="75" as="geometry" />
        </mxCell>
        <mxCell id="uTO-hYd0or9rgPyPV0Z1-30" value="" style="endArrow=block;html=1;rounded=1;entryX=0.421;entryY=0;entryDx=0;entryDy=0;entryPerimeter=0;edgeStyle=orthogonalEdgeStyle;strokeWidth=2;endFill=1;" parent="uTO-hYd0or9rgPyPV0Z1-13" target="uTO-hYd0or9rgPyPV0Z1-22" edge="1">
          <mxGeometry width="50" height="50" relative="1" as="geometry">
            <mxPoint x="70" y="100" as="sourcePoint" />
            <mxPoint x="120" y="50" as="targetPoint" />
            <Array as="points">
              <mxPoint x="70" y="130" />
              <mxPoint x="-60" y="130" />
            </Array>
          </mxGeometry>
        </mxCell>
        <mxCell id="uTO-hYd0or9rgPyPV0Z1-31" value="" style="endArrow=block;html=1;rounded=1;entryX=0.462;entryY=0.035;entryDx=0;entryDy=0;entryPerimeter=0;edgeStyle=orthogonalEdgeStyle;strokeWidth=2;endFill=1;" parent="uTO-hYd0or9rgPyPV0Z1-13" target="uTO-hYd0or9rgPyPV0Z1-24" edge="1">
          <mxGeometry width="50" height="50" relative="1" as="geometry">
            <mxPoint x="120" y="100" as="sourcePoint" />
            <mxPoint x="170" y="50" as="targetPoint" />
            <Array as="points">
              <mxPoint x="120" y="130" />
              <mxPoint x="218" y="130" />
            </Array>
          </mxGeometry>
        </mxCell>
        <mxCell id="NlYv4o44EWYGkBMWQj46-3" value="" style="endArrow=block;html=1;rounded=1;entryX=0.5;entryY=0;entryDx=0;entryDy=0;edgeStyle=orthogonalEdgeStyle;strokeWidth=2;endFill=1;" parent="uTO-hYd0or9rgPyPV0Z1-13" target="NlYv4o44EWYGkBMWQj46-1" edge="1">
          <mxGeometry width="50" height="50" relative="1" as="geometry">
            <mxPoint y="50" as="sourcePoint" />
            <mxPoint x="50" as="targetPoint" />
          </mxGeometry>
        </mxCell>
        <mxCell id="uTO-hYd0or9rgPyPV0Z1-20" value="System Security" style="swimlane;whiteSpace=wrap;html=1;strokeWidth=2;fillColor=#f8cecc;strokeColor=#000000;" parent="1" vertex="1">
          <mxGeometry x="-420" y="420" width="220" height="110" as="geometry">
            <mxRectangle x="270" y="280" width="140" height="30" as="alternateBounds" />
          </mxGeometry>
        </mxCell>
        <mxCell id="uTO-hYd0or9rgPyPV0Z1-21" value="&lt;div style=&quot;font-size: 13px;&quot;&gt;&lt;span style=&quot;background-color: initial;&quot;&gt;Surveillance and Monitoring&lt;br&gt;Biometric Identification&lt;br&gt;Threat Detection&lt;/span&gt;&lt;/div&gt;&lt;div style=&quot;font-size: 13px;&quot;&gt;Local Authority Collaborations&lt;span style=&quot;background-color: initial;&quot;&gt;&lt;br&gt;&lt;/span&gt;&lt;/div&gt;" style="text;html=1;align=left;verticalAlign=middle;whiteSpace=wrap;rounded=0;" parent="uTO-hYd0or9rgPyPV0Z1-20" vertex="1">
          <mxGeometry x="5" y="33" width="205" height="77" as="geometry" />
        </mxCell>
        <mxCell id="uTO-hYd0or9rgPyPV0Z1-22" value="Resource Management" style="swimlane;whiteSpace=wrap;html=1;strokeWidth=2;fillColor=#f8cecc;strokeColor=#000000;" parent="1" vertex="1">
          <mxGeometry x="-150" y="340" width="190" height="110" as="geometry">
            <mxRectangle x="270" y="280" width="140" height="30" as="alternateBounds" />
          </mxGeometry>
        </mxCell>
        <mxCell id="uTO-hYd0or9rgPyPV0Z1-23" value="&lt;div style=&quot;text-align: left; font-size: 13px;&quot;&gt;Allocate Supplies&amp;nbsp;&lt;br&gt;Waste Management&lt;/div&gt;&lt;div style=&quot;text-align: left; font-size: 13px;&quot;&gt;Eco-friendly Technologies&lt;/div&gt;" style="text;html=1;align=center;verticalAlign=middle;whiteSpace=wrap;rounded=0;" parent="uTO-hYd0or9rgPyPV0Z1-22" vertex="1">
          <mxGeometry x="20" y="25" width="150" height="74" as="geometry" />
        </mxCell>
        <mxCell id="uTO-hYd0or9rgPyPV0Z1-24" value="Economic Empowerment" style="swimlane;whiteSpace=wrap;html=1;strokeWidth=2;fillColor=#f8cecc;strokeColor=#000000;" parent="1" vertex="1">
          <mxGeometry x="120" y="340" width="190" height="110" as="geometry">
            <mxRectangle x="270" y="280" width="140" height="30" as="alternateBounds" />
          </mxGeometry>
        </mxCell>
        <mxCell id="uTO-hYd0or9rgPyPV0Z1-25" value="&lt;div style=&quot;text-align: left; font-size: 13px;&quot;&gt;Vocational Training Programs&lt;br&gt;Employment Opportunities&lt;br&gt;Microfinance Support&lt;/div&gt;&lt;div style=&quot;text-align: left; font-size: 13px;&quot;&gt;Digital Marketplaces&lt;br&gt;&lt;/div&gt;" style="text;html=1;align=center;verticalAlign=middle;whiteSpace=wrap;rounded=0;" parent="uTO-hYd0or9rgPyPV0Z1-24" vertex="1">
          <mxGeometry x="8" y="25" width="180" height="75" as="geometry" />
        </mxCell>
        <mxCell id="uTO-hYd0or9rgPyPV0Z1-26" value="Community Integration" style="swimlane;whiteSpace=wrap;html=1;strokeWidth=2;fillColor=#f8cecc;strokeColor=#000000;" parent="1" vertex="1">
          <mxGeometry x="360" y="340" width="190" height="100" as="geometry">
            <mxRectangle x="270" y="280" width="140" height="30" as="alternateBounds" />
          </mxGeometry>
        </mxCell>
        <mxCell id="uTO-hYd0or9rgPyPV0Z1-27" value="&lt;div style=&quot;text-align: left; font-size: 13px;&quot;&gt;&lt;font style=&quot;font-size: 13px;&quot;&gt;Cultural Awareness Programs&lt;/font&gt;&lt;/div&gt;&lt;div style=&quot;text-align: left; font-size: 13px;&quot;&gt;&lt;font style=&quot;font-size: 13px;&quot;&gt;Education Initiatives&lt;br&gt;Social Activities&lt;/font&gt;&lt;span style=&quot;background-color: initial;&quot;&gt;&amp;nbsp;&lt;br&gt;Education Programs&lt;/span&gt;&lt;/div&gt;" style="text;html=1;align=center;verticalAlign=middle;whiteSpace=wrap;rounded=0;" parent="uTO-hYd0or9rgPyPV0Z1-26" vertex="1">
          <mxGeometry x="5" y="25" width="180" height="65" as="geometry" />
        </mxCell>
        <mxCell id="uTO-hYd0or9rgPyPV0Z1-33" value="" style="endArrow=block;html=1;rounded=1;entryX=0.5;entryY=0;entryDx=0;entryDy=0;edgeStyle=orthogonalEdgeStyle;curved=0;strokeWidth=2;endFill=1;" parent="1" target="uTO-hYd0or9rgPyPV0Z1-26" edge="1">
          <mxGeometry width="50" height="50" relative="1" as="geometry">
            <mxPoint x="230" y="200" as="sourcePoint" />
            <mxPoint x="250" y="150" as="targetPoint" />
          </mxGeometry>
        </mxCell>
        <mxCell id="uTO-hYd0or9rgPyPV0Z1-34" value="&lt;span style=&quot;font-size: 15px;&quot;&gt;Manages&lt;/span&gt;" style="text;html=1;align=center;verticalAlign=middle;whiteSpace=wrap;rounded=0;" parent="1" vertex="1">
          <mxGeometry x="-190" y="160" width="80" height="40" as="geometry" />
        </mxCell>
        <mxCell id="uTO-hYd0or9rgPyPV0Z1-35" value="&lt;font style=&quot;font-size: 15px;&quot;&gt;Optimizes&lt;/font&gt;" style="text;html=1;align=center;verticalAlign=middle;whiteSpace=wrap;rounded=0;" parent="1" vertex="1">
          <mxGeometry x="-100" y="230" width="80" height="40" as="geometry" />
        </mxCell>
        <mxCell id="uTO-hYd0or9rgPyPV0Z1-36" value="&lt;font style=&quot;font-size: 15px;&quot;&gt;Enhances&lt;/font&gt;" style="text;html=1;align=center;verticalAlign=middle;whiteSpace=wrap;rounded=0;" parent="1" vertex="1">
          <mxGeometry x="210" y="280" width="80" height="40" as="geometry" />
        </mxCell>
        <mxCell id="uTO-hYd0or9rgPyPV0Z1-37" value="&lt;font style=&quot;font-size: 15px;&quot;&gt;Supports&lt;/font&gt;" style="text;html=1;align=center;verticalAlign=middle;whiteSpace=wrap;rounded=0;" parent="1" vertex="1">
          <mxGeometry x="320" y="160" width="80" height="40" as="geometry" />
        </mxCell>
        <mxCell id="NlYv4o44EWYGkBMWQj46-1" value="Centralized Databace Management" style="swimlane;whiteSpace=wrap;html=1;strokeWidth=2;fillColor=#f8cecc;strokeColor=#000000;" parent="1" vertex="1">
          <mxGeometry x="-430" y="240" width="220" height="100" as="geometry">
            <mxRectangle x="270" y="280" width="140" height="30" as="alternateBounds" />
          </mxGeometry>
        </mxCell>
        <mxCell id="NlYv4o44EWYGkBMWQj46-2" value="&lt;div style=&quot;font-size: 13px;&quot;&gt;&lt;span style=&quot;background-color: initial;&quot;&gt;&lt;br&gt;Biometric Data&lt;br&gt;Inter Agency Data Sharing&lt;/span&gt;&lt;/div&gt;&lt;div style=&quot;font-size: 13px;&quot;&gt;&lt;span style=&quot;background-color: initial;&quot;&gt;Unified Refugee Profiles&lt;/span&gt;&lt;/div&gt;" style="text;html=1;align=left;verticalAlign=middle;whiteSpace=wrap;rounded=0;" parent="NlYv4o44EWYGkBMWQj46-1" vertex="1">
          <mxGeometry x="15" y="33" width="155" height="40" as="geometry" />
        </mxCell>
        <mxCell id="NlYv4o44EWYGkBMWQj46-4" value="" style="endArrow=block;html=1;rounded=0;exitX=0.5;exitY=1;exitDx=0;exitDy=0;strokeWidth=2;endFill=1;" parent="1" source="NlYv4o44EWYGkBMWQj46-1" edge="1">
          <mxGeometry width="50" height="50" relative="1" as="geometry">
            <mxPoint x="-330" y="350" as="sourcePoint" />
            <mxPoint x="-320" y="420" as="targetPoint" />
          </mxGeometry>
        </mxCell>
        <mxCell id="NlYv4o44EWYGkBMWQj46-5" value="&lt;span style=&quot;font-size: 15px;&quot;&gt;Supports&lt;/span&gt;" style="text;html=1;align=center;verticalAlign=middle;whiteSpace=wrap;rounded=0;" parent="1" vertex="1">
          <mxGeometry x="-310" y="360" width="80" height="40" as="geometry" />
        </mxCell>
      </root>
    </mxGraphModel>
  </diagram>
</mxfile>
